<svg xmlns="http://www.w3.org/2000/svg" viewBox="0 0 246.159 248.521">
  <g id="Group_242" data-name="Group 242" transform="translate(-334 -398)">
    <g id="Group_241" data-name="Group 241" transform="translate(334 398)">
      <g id="Group_237" data-name="Group 237" transform="translate(0 0)">
        <ellipse id="Ellipse_109" data-name="Ellipse 109" cx="24.571" cy="24.484" rx="24.571" ry="24.484" transform="translate(61.891 208.197) rotate(-34.566)" fill="#edc20e"/>
        <ellipse id="Ellipse_110" data-name="Ellipse 110" cx="21.83" cy="21.753" rx="21.83" ry="21.753" transform="translate(119.375 27.014) rotate(-34.566)" fill="#edc20e"/>
        <ellipse id="Ellipse_111" data-name="Ellipse 111" cx="21.83" cy="21.753" rx="21.83" ry="21.753" transform="translate(156.091 48.701) rotate(-34.566)" fill="#3ad68e"/>
        <ellipse id="Ellipse_112" data-name="Ellipse 112" cx="21.83" cy="21.753" rx="21.83" ry="21.753" transform="translate(180.183 83.669) rotate(-34.566)" fill="#00bad8"/>
        <ellipse id="Ellipse_113" data-name="Ellipse 113" cx="21.83" cy="21.753" rx="21.83" ry="21.753" transform="translate(185.522 124.683) rotate(-34.566)" fill="#8368d8"/>
        <ellipse id="Ellipse_114" data-name="Ellipse 114" cx="21.83" cy="21.753" rx="21.83" ry="21.753" transform="translate(173.316 165.18) rotate(-34.566)" fill="#e38aca"/>
        <ellipse id="Ellipse_115" data-name="Ellipse 115" cx="21.83" cy="21.753" rx="21.83" ry="21.753" transform="translate(144.962 193.883) rotate(-34.566)" fill="#d04945"/>
        <ellipse id="Ellipse_116" data-name="Ellipse 116" cx="21.83" cy="21.753" rx="21.83" ry="21.753" transform="translate(107.8 211.465) rotate(-34.566)" fill="#ef7d50"/>
        <ellipse id="Ellipse_117" data-name="Ellipse 117" cx="21.83" cy="21.753" rx="21.83" ry="21.753" transform="translate(77.722 24.771) rotate(-34.566)" fill="#ef7d50"/>
        <ellipse id="Ellipse_118" data-name="Ellipse 118" cx="21.83" cy="21.753" rx="21.83" ry="21.753" transform="translate(40.025 41.577) rotate(-34.566)" fill="#d04945"/>
        <ellipse id="Ellipse_119" data-name="Ellipse 119" cx="21.83" cy="21.753" rx="21.83" ry="21.753" transform="translate(11.429 71.592) rotate(-34.566)" fill="#e38aca"/>
        <ellipse id="Ellipse_120" data-name="Ellipse 120" cx="21.83" cy="21.753" rx="21.83" ry="21.753" transform="translate(0 111.553) rotate(-34.566)" fill="#8368d8"/>
        <ellipse id="Ellipse_121" data-name="Ellipse 121" cx="21.83" cy="21.753" rx="21.83" ry="21.753" transform="translate(5.339 152.567) rotate(-34.566)" fill="#00bad8"/>
        <ellipse id="Ellipse_122" data-name="Ellipse 122" cx="21.83" cy="21.753" rx="21.83" ry="21.753" transform="translate(28.896 186.758) rotate(-34.566)" fill="#3ad68e"/>
        <path id="Path_95" data-name="Path 95" d="M396.3,190.72h0a4.512,4.512,0,0,1-5.953-2.747,93.157,93.157,0,0,1-4.862-31.535,4.539,4.539,0,0,1,4.839-4.446h0a4.479,4.479,0,0,1,4.187,4.547,84.1,84.1,0,0,0,4.4,28.563A4.507,4.507,0,0,1,396.3,190.72Z" transform="translate(-355.66 -34.455)" fill="#8368d8"/>
        <path id="Path_96" data-name="Path 96" d="M419.64,228.481a4.527,4.527,0,0,1-6.559.094A93.4,93.4,0,0,1,395.008,202.3a4.525,4.525,0,0,1,2.432-6.093h0a4.479,4.479,0,0,1,5.744,2.247,84.467,84.467,0,0,0,16.41,23.855,4.479,4.479,0,0,1,.046,6.169Z" transform="translate(-356.801 -39.943)" fill="#00bad8"/>
        <path id="Path_97" data-name="Path 97" d="M451.136,255.262a93.154,93.154,0,0,1-27.651-15.8,4.512,4.512,0,0,1-.436-6.541h0a4.506,4.506,0,0,1,6.18-.431,84.1,84.1,0,0,0,25.044,14.3,4.479,4.479,0,0,1,2.746,5.538h0A4.539,4.539,0,0,1,451.136,255.262Z" transform="translate(-360.208 -44.391)" fill="#3ad68e"/>
        <path id="Path_98" data-name="Path 98" d="M497.094,262.863a94.172,94.172,0,0,1-31.848-2.307,4.5,4.5,0,0,1-3.23-5.7h0a4.517,4.517,0,0,1,5.394-3.064,85.056,85.056,0,0,0,28.865,2.092,4.481,4.481,0,0,1,4.873,3.8h0A4.535,4.535,0,0,1,497.094,262.863Z" transform="translate(-365.203 -46.916)" fill="#edc20e"/>
        <path id="Path_99" data-name="Path 99" d="M542.422,247.869a92.24,92.24,0,0,1-30.385,12.071,4.413,4.413,0,0,1-5.265-3.656l-.028-.188a4.449,4.449,0,0,1,3.554-5,83.264,83.264,0,0,0,27.357-10.87,4.433,4.433,0,0,1,6,1.209l.109.158A4.429,4.429,0,0,1,542.422,247.869Z" transform="translate(-370.814 -45.401)" fill="#ef7d50"/>
        <path id="Path_100" data-name="Path 100" d="M548.884,237.617h0a4.488,4.488,0,0,1,.946-6.107,83.322,83.322,0,0,0,19.526-21.094,4.5,4.5,0,0,1,6.017-1.432h0a4.506,4.506,0,0,1,1.521,6.367,92.3,92.3,0,0,1-21.535,23.267A4.522,4.522,0,0,1,548.884,237.617Z" transform="translate(-375.987 -41.506)" fill="#d04945"/>
        <path id="Path_101" data-name="Path 101" d="M591.289,160.656h0a4.477,4.477,0,0,1-4.153-4.574,84.084,84.084,0,0,0-4.365-29.117,4.5,4.5,0,0,1,2.619-5.611h0a4.512,4.512,0,0,1,5.951,2.755,93.125,93.125,0,0,1,4.819,32.135A4.54,4.54,0,0,1,591.289,160.656Z" transform="translate(-380.294 -30.586)" fill="#8368d8"/>
        <path id="Path_102" data-name="Path 102" d="M582.471,116.586h0a4.48,4.48,0,0,1-5.743-2.251A84.451,84.451,0,0,0,560.4,90.53a4.48,4.48,0,0,1-.037-6.171h0a4.525,4.525,0,0,1,6.557-.083,93.47,93.47,0,0,1,17.983,26.219A4.527,4.527,0,0,1,582.471,116.586Z" transform="translate(-377.371 -25.822)" fill="#00bad8"/>
        <path id="Path_103" data-name="Path 103" d="M549.493,81.756A84.079,84.079,0,0,0,524.57,67.437a4.479,4.479,0,0,1-2.729-5.547h0a4.539,4.539,0,0,1,5.892-2.907A93.151,93.151,0,0,1,555.253,74.8a4.51,4.51,0,0,1,.423,6.541h0A4.507,4.507,0,0,1,549.493,81.756Z" transform="translate(-372.681 -22.796)" fill="#3ad68e"/>
        <path id="Path_104" data-name="Path 104" d="M510.9,64.172a85.131,85.131,0,0,0-28.674-2.2,4.482,4.482,0,0,1-4.854-3.83h0A4.535,4.535,0,0,1,481.448,53a94.2,94.2,0,0,1,31.642,2.425,4.5,4.5,0,0,1,3.212,5.7h0A4.516,4.516,0,0,1,510.9,64.172Z" transform="translate(-367.142 -22.031)" fill="#edc20e"/>
        <path id="Path_105" data-name="Path 105" d="M468.355,63.446a83.223,83.223,0,0,0-27.731,10.918,4.518,4.518,0,0,1-6.116-1.234l-.013-.019a4.511,4.511,0,0,1,1.374-6.394,92.2,92.2,0,0,1,30.7-12.1,4.5,4.5,0,0,1,5.347,3.754l0,.026A4.5,4.5,0,0,1,468.355,63.446Z" transform="translate(-361.69 -22.273)" fill="#ef7d50"/>
        <path id="Path_106" data-name="Path 106" d="M403.427,105.123l-.1-.054a4.453,4.453,0,0,1-1.578-6.273,92.222,92.222,0,0,1,22.236-24.332,4.468,4.468,0,0,1,6.4.985l.063.091a4.473,4.473,0,0,1-1.016,6.1,83.238,83.238,0,0,0-20.026,21.91A4.49,4.49,0,0,1,403.427,105.123Z" transform="translate(-357.609 -24.649)" fill="#d04945"/>
        <path id="Path_107" data-name="Path 107" d="M390.421,146.615h0a4.5,4.5,0,0,1-4.16-5.053,94.21,94.21,0,0,1,9.006-30.067,4.535,4.535,0,0,1,6.266-1.966h0a4.482,4.482,0,0,1,1.84,5.9,85.144,85.144,0,0,0-8.159,27.241A4.517,4.517,0,0,1,390.421,146.615Z" transform="translate(-355.755 -29.077)" fill="#e38aca"/>
        <path id="Path_108" data-name="Path 108" d="M412.061,235.364a4.53,4.53,0,0,1-6.556.074,102.5,102.5,0,0,1-20.25-29.631,4.533,4.533,0,0,1,2.447-6.088h0a4.481,4.481,0,0,1,5.748,2.287,93.52,93.52,0,0,0,18.561,27.164,4.483,4.483,0,0,1,.049,6.191Z" transform="translate(-355.583 -40.382)" fill="#3ad68e"/>
        <path id="Path_109" data-name="Path 109" d="M447.63,264.841A102.152,102.152,0,0,1,416.2,246.834a4.516,4.516,0,0,1-.419-6.542h0a4.5,4.5,0,0,1,6.182-.416,93.082,93.082,0,0,0,28.807,16.5,4.472,4.472,0,0,1,2.747,5.539h0A4.544,4.544,0,0,1,447.63,264.841Z" transform="translate(-359.298 -45.312)" fill="#edc20e"/>
        <path id="Path_110" data-name="Path 110" d="M498.362,272.991a103.278,103.278,0,0,1-36.078-2.547,4.506,4.506,0,0,1-3.237-5.689h0a4.51,4.51,0,0,1,5.391-3.071,94.167,94.167,0,0,0,33.079,2.335,4.476,4.476,0,0,1,4.884,3.793h0A4.542,4.542,0,0,1,498.362,272.991Z" transform="translate(-364.833 -48.151)" fill="#ef7d50"/>
        <path id="Path_111" data-name="Path 111" d="M547.854,256.3a101.244,101.244,0,0,1-34.048,13.584,4.385,4.385,0,0,1-5.176-3.657l-.023-.151a4.451,4.451,0,0,1,3.493-5.039A92.261,92.261,0,0,0,543.014,248.7a4.4,4.4,0,0,1,5.976,1.192l.127.184A4.4,4.4,0,0,1,547.854,256.3Z" transform="translate(-371.046 -46.46)" fill="#d04945"/>
        <g id="Group_236" data-name="Group 236" transform="translate(177.215 130.057)">
          <path id="Path_112" data-name="Path 112" d="M590.558,166.315a4.516,4.516,0,0,0-4.822,3.9,85.054,85.054,0,0,1-8.56,27.579,4.482,4.482,0,0,0,1.767,5.925h0a4.536,4.536,0,0,0,6.291-1.889A94.151,94.151,0,0,0,594.68,171.4,4.5,4.5,0,0,0,590.558,166.315Z" transform="translate(-556.778 -166.302)" fill="#e38aca"/>
          <path id="Path_113" data-name="Path 113" d="M583.937,214.1a4.505,4.505,0,0,0-6.031,1.456,92.29,92.29,0,0,1-22.208,24,4.49,4.49,0,0,0-.967,6.123l0,0a4.526,4.526,0,0,0,6.473,1,101.265,101.265,0,0,0,24.255-26.213,4.51,4.51,0,0,0-1.521-6.364Z" transform="translate(-553.934 -172.202)" fill="#e38aca"/>
        </g>
        <path id="Path_114" data-name="Path 114" d="M587.9,208.277h0a4.476,4.476,0,0,1-1.771-5.926,94.145,94.145,0,0,0,9.755-31.532,4.51,4.51,0,0,1,4.819-3.909h0a4.506,4.506,0,0,1,4.127,5.08,103.308,103.308,0,0,1-10.643,34.393A4.541,4.541,0,0,1,587.9,208.277Z" transform="translate(-380.681 -36.32)" fill="#8368d8"/>
        <path id="Path_115" data-name="Path 115" d="M601.52,160.712h0a4.473,4.473,0,0,1-4.164-4.569,93.107,93.107,0,0,0-4.945-32.907,4.5,4.5,0,0,1,2.628-5.611h0a4.516,4.516,0,0,1,5.945,2.761,102.141,102.141,0,0,1,5.4,35.907A4.544,4.544,0,0,1,601.52,160.712Z" transform="translate(-381.498 -30.121)" fill="#00bad8"/>
        <path id="Path_116" data-name="Path 116" d="M591.809,112.394h0a4.481,4.481,0,0,1-5.751-2.281A93.558,93.558,0,0,0,567.582,83.1a4.483,4.483,0,0,1-.045-6.192l0,0a4.529,4.529,0,0,1,6.555-.071A102.488,102.488,0,0,1,594.249,106.3,4.532,4.532,0,0,1,591.809,112.394Z" transform="translate(-378.266 -24.891)" fill="#3ad68e"/>
        <path id="Path_117" data-name="Path 117" d="M556.107,73.977a93.084,93.084,0,0,0-28.819-16.525,4.472,4.472,0,0,1-2.746-5.539h0a4.544,4.544,0,0,1,5.883-2.924,102.162,102.162,0,0,1,31.448,18.034,4.517,4.517,0,0,1,.416,6.542h0A4.5,4.5,0,0,1,556.107,73.977Z" transform="translate(-373.019 -21.548)" fill="#edc20e"/>
        <path id="Path_118" data-name="Path 118" d="M513,54.178a94.184,94.184,0,0,0-32.956-2.359,4.474,4.474,0,0,1-4.878-3.8h0a4.541,4.541,0,0,1,4.046-5.173,103.292,103.292,0,0,1,35.947,2.573,4.506,4.506,0,0,1,3.234,5.69h0A4.511,4.511,0,0,1,513,54.178Z" transform="translate(-366.866 -20.744)" fill="#ef7d50"/>
        <path id="Path_119" data-name="Path 119" d="M465.724,53.378a92.248,92.248,0,0,0-31.01,12.345,4.482,4.482,0,0,1-6.054-1.278l-.013-.018a4.481,4.481,0,0,1,1.287-6.335,101.211,101.211,0,0,1,33.951-13.534,4.5,4.5,0,0,1,5.367,3.715l0,.026A4.493,4.493,0,0,1,465.724,53.378Z" transform="translate(-360.958 -21.016)" fill="#d04945"/>
        <path id="Path_120" data-name="Path 120" d="M395.025,98.658h0a4.511,4.511,0,0,1-1.525-6.365,101.252,101.252,0,0,1,24.294-26.276,4.526,4.526,0,0,1,6.476,1h0a4.491,4.491,0,0,1-.967,6.125A92.293,92.293,0,0,0,401.059,97.2,4.507,4.507,0,0,1,395.025,98.658Z" transform="translate(-356.574 -23.593)" fill="#e38aca"/>
        <path id="Path_121" data-name="Path 121" d="M380.124,145.132h0a4.507,4.507,0,0,1-4.151-5.064,103.262,103.262,0,0,1,10.663-34.8,4.542,4.542,0,0,1,6.289-1.9h0a4.476,4.476,0,0,1,1.776,5.923,94.151,94.151,0,0,0-9.776,31.907A4.51,4.51,0,0,1,380.124,145.132Z" transform="translate(-354.469 -28.305)" fill="#8368d8"/>
        <path id="Path_122" data-name="Path 122" d="M386.494,193.689h0a4.515,4.515,0,0,1-5.94-2.765,102.2,102.2,0,0,1-5.367-35.3,4.542,4.542,0,0,1,4.84-4.44h0a4.473,4.473,0,0,1,4.185,4.553,93.131,93.131,0,0,0,4.916,32.344A4.5,4.5,0,0,1,386.494,193.689Z" transform="translate(-354.371 -34.354)" fill="#00bad8"/>
      </g>
      <g id="Group_239" data-name="Group 239" transform="translate(65.319 118.478)">
        <g id="Group_238" data-name="Group 238" transform="translate(0 0.505)">
          <path id="Path_123" data-name="Path 123" d="M441.546,157.254l-.089.189a1.673,1.673,0,0,1-2.22.8,11.913,11.913,0,0,0-4.812-1.2c-2.116,0-3.5.794-3.5,2.23,0,4.673,11.589,2.169,11.558,9.866,0,3.818-3.372,6.171-8.093,6.171a13.274,13.274,0,0,1-7.628-2.468,1.685,1.685,0,0,1-.536-2.125l.042-.083a1.666,1.666,0,0,1,2.4-.661,10.718,10.718,0,0,0,5.78,1.948c2.515,0,4.016-.947,4.016-2.6,0-4.765-11.588-2.107-11.588-9.713,0-3.665,3.157-5.957,7.817-5.957a14.239,14.239,0,0,1,6.073,1.389A1.669,1.669,0,0,1,441.546,157.254Z" transform="translate(-426.053 -153.647)" fill="#1d1d1b"/>
          <path id="Path_124" data-name="Path 124" d="M497.386,173.534l-.024-12.364a.454.454,0,0,0-.862-.2l-5.457,11.071a1.673,1.673,0,0,1-1.5.933h-.281a1.673,1.673,0,0,1-1.5-.933l-5.452-11.062a.455.455,0,0,0-.863.2v12.351a1.672,1.672,0,0,1-1.672,1.672h-.059a1.672,1.672,0,0,1-1.673-1.672V155.494a1.672,1.672,0,0,1,1.673-1.672H481.3a1.672,1.672,0,0,1,1.5.926l6.064,12.161a.621.621,0,0,0,1.111,0l6.036-12.157a1.673,1.673,0,0,1,1.5-.928h1.551a1.671,1.671,0,0,1,1.672,1.672v18.036a1.671,1.671,0,0,1-1.672,1.672h0A1.672,1.672,0,0,1,497.386,173.534Z" transform="translate(-432.551 -153.669)" fill="#1d1d1b"/>
          <path id="Path_125" data-name="Path 125" d="M552.495,157.254l-.089.189a1.672,1.672,0,0,1-2.219.8,11.914,11.914,0,0,0-4.812-1.2c-2.116,0-3.5.794-3.5,2.23,0,4.673,11.589,2.169,11.558,9.866,0,3.818-3.372,6.171-8.093,6.171a13.269,13.269,0,0,1-7.627-2.468,1.684,1.684,0,0,1-.536-2.125l.041-.083a1.666,1.666,0,0,1,2.4-.661,10.714,10.714,0,0,0,5.78,1.948c2.514,0,4.016-.947,4.016-2.6,0-4.765-11.589-2.107-11.589-9.713,0-3.665,3.158-5.957,7.817-5.957a14.233,14.233,0,0,1,6.073,1.389A1.668,1.668,0,0,1,552.495,157.254Z" transform="translate(-439.921 -153.647)" fill="#1d1d1b"/>
        </g>
        <path id="Path_126" data-name="Path 126" d="M465.868,158h0a1.634,1.634,0,0,0,.122,2.089,7.562,7.562,0,0,1-8.9,11.918,1.634,1.634,0,0,0-2.034.479h0a1.623,1.623,0,0,0,.524,2.406,10.738,10.738,0,0,0,12.742-17.076A1.625,1.625,0,0,0,465.868,158Z" transform="translate(-429.637 -153.604)" fill="#1d1d1b"/>
        <path id="Path_127" data-name="Path 127" d="M453.469,171.442h0a1.634,1.634,0,0,0-.123-2.089,7.563,7.563,0,0,1,8.9-11.918,1.633,1.633,0,0,0,2.034-.479h0a1.624,1.624,0,0,0-.525-2.406,10.738,10.738,0,0,0-12.741,17.076A1.624,1.624,0,0,0,453.469,171.442Z" transform="translate(-428.762 -153.086)" fill="#1d1d1b"/>
        <path id="Path_128" data-name="Path 128" d="M526.94,159.059h0a1.634,1.634,0,0,0-.178,2.085,7.563,7.563,0,0,1-10.522,10.515,1.634,1.634,0,0,0-2.081.181h0a1.624,1.624,0,0,0,.173,2.457A10.737,10.737,0,0,0,529.4,159.231,1.624,1.624,0,0,0,526.94,159.059Z" transform="translate(-437.006 -153.758)" fill="#1d1d1b"/>
        <path id="Path_129" data-name="Path 129" d="M512.839,170.524h0a1.634,1.634,0,0,0,.179-2.085,7.562,7.562,0,0,1,10.521-10.515,1.633,1.633,0,0,0,2.081-.181h0a1.624,1.624,0,0,0-.173-2.457,10.738,10.738,0,0,0-15.063,15.068A1.624,1.624,0,0,0,512.839,170.524Z" transform="translate(-436.314 -153.069)" fill="#1d1d1b"/>
      </g>
      <g id="Group_240" data-name="Group 240" transform="translate(93.111 97.6)">
        <path id="Path_130" data-name="Path 130" d="M465.924,129.5h1.386a.2.2,0,0,1,.2.2v10.158a.2.2,0,0,1-.2.2h-1.638a.2.2,0,0,1-.157-.076l-5.565-7.167a.2.2,0,0,0-.354.121v6.925a.2.2,0,0,1-.2.2h-1.386a.2.2,0,0,1-.2-.2V129.7a.2.2,0,0,1,.2-.2H459.5a.2.2,0,0,1,.157.076l5.716,7.35a.2.2,0,0,0,.354-.122V129.7A.2.2,0,0,1,465.924,129.5Z" transform="translate(-457.814 -129.246)"/>
        <path id="Path_131" data-name="Path 131" d="M486.152,138.563a5.788,5.788,0,0,1-7.912,0,5.541,5.541,0,0,1,0-7.791,5.788,5.788,0,0,1,7.912,0,5.541,5.541,0,0,1,0,7.791Zm-1.306-6.605a3.7,3.7,0,0,0-5.3,0,3.944,3.944,0,0,0,0,5.421,3.7,3.7,0,0,0,5.3,0,3.941,3.941,0,0,0,0-5.421Z" transform="translate(-460.167 -129.209)"/>
        <path id="Path_132" data-name="Path 132" d="M497.088,139.859V129.7a.2.2,0,0,1,.2-.2h1.385a.2.2,0,0,1,.2.2v4.179a.2.2,0,0,0,.2.2h4.843a.2.2,0,0,0,.2-.2V129.7a.2.2,0,0,1,.2-.2h1.386a.2.2,0,0,1,.2.2v10.158a.2.2,0,0,1-.2.2h-1.386a.2.2,0,0,1-.2-.2v-3.922a.2.2,0,0,0-.2-.2h-4.843a.2.2,0,0,0-.2.2v3.922a.2.2,0,0,1-.2.2h-1.385A.2.2,0,0,1,497.088,139.859Z" transform="translate(-462.723 -129.246)"/>
        <path id="Path_133" data-name="Path 133" d="M518.753,130.855a2.333,2.333,0,0,0-1.276.318,1.058,1.058,0,0,0-.5.958,1.113,1.113,0,0,0,.5.982,7.513,7.513,0,0,0,2.122.732,5.829,5.829,0,0,1,2.446,1.1,2.61,2.61,0,0,1,.823,2.091,2.77,2.77,0,0,1-1.041,2.242,4.152,4.152,0,0,1-2.734.861,6.387,6.387,0,0,1-4.242-1.575.2.2,0,0,1-.024-.284l.865-1.041a.2.2,0,0,1,.276-.022,4.941,4.941,0,0,0,3.17,1.26,2.268,2.268,0,0,0,1.367-.369,1.159,1.159,0,0,0,.506-.982,1.1,1.1,0,0,0-.476-.951,5.034,5.034,0,0,0-1.638-.62,14.652,14.652,0,0,1-1.767-.513,3.967,3.967,0,0,1-1.072-.612,2.552,2.552,0,0,1-.936-2.173A2.652,2.652,0,0,1,516.186,130a4.291,4.291,0,0,1,2.635-.793,6.348,6.348,0,0,1,2.008.333,5.334,5.334,0,0,1,1.572.817.2.2,0,0,1,.038.275l-.719,1.016a.2.2,0,0,1-.284.038,3.878,3.878,0,0,0-1.106-.56A4.887,4.887,0,0,0,518.753,130.855Z" transform="translate(-464.935 -129.209)"/>
      </g>
    </g>
  </g>
</svg>
